{"title":"7th.Heaven.Season.11.TV-Rip.XviD.LOL","uid":5319730,"size":8068546695,"categoryP":"video","categoryS":"tv_shows","magnet":"?xt=urn:btih:7e01f84a903e3587fb7189776793abeb28639530&amp;dn=7th.Heaven.Season.11.TV-Rip.XviD.LOL&amp;tr=udp%3A%2F%2Ftracker.openbittorrent.com%3A80&amp;tr=udp%3A%2F%2Fopen.demonii.com%3A1337&amp;tr=udp%3A%2F%2Ftracker.coppersurfer.tk%3A6969&amp;tr=udp%3A%2F%2Fexodus.desync.com%3A6969","seeders":1,"leechers":2,"uploader":"H0bbes99","files":23,"time":1264827423,"description":"7th Heaven Season 11\n\nTechnical info of first episode...\n\n7th.Heaven.S11E01.Turn.Turn.Turn.PDTV.XviD-LOL.[sharethefiles.com].avi\nFormat                           : AVI\nFormat/Info                      : Audio Video Interleave\nFile size                        : 351 MiB\nDuration                         : 41mn 54s\nOverall bit rate                 : 1 171 Kbps\nWriting application              : VirtualDub\n\nVideo\nID                               : 0\nFormat                           : MPEG-4 Visual\nFormat profile                   : Simple@L3\nFormat settings, BVOP            : Yes\nFormat settings, QPel            : No\nFormat settings, GMC             : No warppoints\nFormat settings, Matrix          : Default (H.263)\nMuxing mode                      : Packed bitstream\nCodec ID                         : XVID\nCodec ID/Hint                    : XviD\nDuration                         : 41mn 54s\nBit rate                         : 984 Kbps\nWidth                            : 512 pixels\nHeight                           : 384 pixels\nDisplay aspect ratio             : 4:3\nFrame rate                       : 23.976 fps\nResolution                       : 24 bits\nColorimetry                      : 4:2:0\nScan type                        : Progressive\nBits/(Pixel*Frame)               : 0.209\nStream size                      : 295 MiB (84%)\nWriting library                  : XviD 1.1.0 Beta1 (UTC 2005-01-16)\n\nAudio\nID                               : 1\nFormat                           : MPEG Audio\nFormat version                   : Version 1\nFormat profile                   : Layer 3\nFormat settings, Mode            : Joint stereo / MS Stereo\nCodec ID                         : 55\nCodec ID/Hint                    : MP3\nDuration                         : 41mn 54s\nBit rate mode                    : Variable\nBit rate                         : 174 Kbps\nNominal bit rate                 : 164 Kbps\nChannel(s)                       : 2 channels\nSampling rate                    : 48.0 KHz\nResolution                       : 16 bits\nStream size                      : 52.2 MiB (15%)\nAlignment                        : Aligned on interleaves\nInterleave, duration             : 24 ms (0.58 video frame)\nInterleave, preload duration     : 467 ms\nWriting library                  : LAME3.95 \nEncoding settings                : -m j -V 4 -q 3 -lowpass 18 --abr 164\n\n","torrent":{"xt":"urn:btih:7e01f84a903e3587fb7189776793abeb28639530","amp;dn":"7th.Heaven.Season.11.TV-Rip.XviD.LOL","amp;tr":["udp%3A%2F%2Ftracker.openbittorrent.com%3A80","udp%3A%2F%2Fopen.demonii.com%3A1337","udp%3A%2F%2Ftracker.coppersurfer.tk%3A6969","udp%3A%2F%2Fexodus.desync.com%3A6969"],"infoHash":"7e01f84a903e3587fb7189776793abeb28639530","infoHashBuffer":{"type":"Buffer","data":[126,1,248,74,144,62,53,135,251,113,137,119,103,147,171,235,40,99,149,48]},"announce":[],"urlList":[]}}